<mxfile host="app.diagrams.net" modified="2021-11-15T17:26:35.444Z" agent="5.0 (Windows)" etag="8X0FAhCikqlCqpMiWr2Y" version="15.7.4" type="github">
  <diagram id="YUCCfoQOFIlpDIC1OWr6" name="Page-1">
    <mxGraphModel dx="942" dy="660" grid="1" gridSize="10" guides="1" tooltips="1" connect="1" arrows="1" fold="1" page="1" pageScale="1" pageWidth="827" pageHeight="1169" math="0" shadow="0">
      <root>
        <mxCell id="0" />
        <mxCell id="1" parent="0" />
        <mxCell id="U7jnYr8AG9DvnrXemCdq-1" value="" style="rounded=0;whiteSpace=wrap;html=1;" vertex="1" parent="1">
          <mxGeometry x="350" y="310" width="120" height="60" as="geometry" />
        </mxCell>
        <mxCell id="U7jnYr8AG9DvnrXemCdq-2" value="" style="whiteSpace=wrap;html=1;aspect=fixed;" vertex="1" parent="1">
          <mxGeometry x="160" y="140" width="80" height="80" as="geometry" />
        </mxCell>
      </root>
    </mxGraphModel>
  </diagram>
</mxfile>
